<svg id="Lag_1" data-name="Lag 1" xmlns="http://www.w3.org/2000/svg" xmlns:xlink="http://www.w3.org/1999/xlink" viewBox="0 0 596.02 819"><defs><style>.cls-1{font-size:50px;font-family:BebasNeue, Bebas Neue;}.cls-2{font-size:30px;}.cls-3{letter-spacing:-0.04em;}.cls-4{letter-spacing:-0.06em;}.cls-5{letter-spacing:-0.01em;}.cls-6{letter-spacing:-0.06em;}.cls-7{letter-spacing:-0.05em;}.cls-8{letter-spacing:-0.01em;}.cls-9{letter-spacing:0em;}.cls-10{letter-spacing:0em;}.cls-11{letter-spacing:-0.03em;}.cls-12{letter-spacing:0em;}.cls-13{letter-spacing:0em;}.cls-14{letter-spacing:-0.01em;}.cls-15{letter-spacing:0em;}.cls-16{letter-spacing:-0.05em;}</style></defs><title>Poster</title><image width="2338" height="704" transform="scale(0.25 0.26)" xlink:href="../../../../../Desktop/Skærmbillede 2017-05-03 kl. 21.14.06.png"/><text class="cls-1" transform="translate(181.49 276)">7 gode grunde<tspan class="cls-2"><tspan x="-169.98" y="132">Der er mange gode grunde til </tspan><tspan class="cls-3" x="125.55" y="132">a</tspan><tspan x="136.62" y="132">t arbejde i SK</tspan><tspan class="cls-3" x="269.04" y="132">A</tspan><tspan class="cls-4" x="280.11" y="132">T</tspan><tspan x="288.99" y="132">. Her </tspan><tspan x="-169.98" y="168">finder du de første </tspan><tspan class="cls-5" x="27.45" y="168">s</tspan><tspan x="38.46" y="168">y</tspan><tspan class="cls-6" x="50.34" y="168">v</tspan><tspan x="60.6" y="168">.</tspan><tspan x="-169.98" y="276">1. Et s</tspan><tspan class="cls-7" x="-110.28" y="276">t</tspan><tspan x="-101.1" y="276">ærkt </tspan><tspan class="cls-8" x="-43.89" y="276">f</tspan><tspan class="cls-9" x="-33.96" y="276">a</tspan><tspan x="-21.78" y="276">gligt mi</tspan><tspan class="cls-10" x="54.75" y="276">l</tspan><tspan x="65.07" y="276">jø</tspan><tspan x="-169.98" y="312">2. Stort an</tspan><tspan class="cls-9" x="-61.68" y="312">s</tspan><tspan class="cls-11" x="-50.49" y="312">v</tspan><tspan x="-39.18" y="312">ar og karrieremuligheder- i hele </tspan><tspan class="cls-12" x="294.29" y="312">D</tspan><tspan x="306.5" y="312">anmark</tspan><tspan x="-169.98" y="348">3. Mulighed for </tspan><tspan class="cls-3" x="-12.48" y="348">a</tspan><tspan x="-1.41" y="348">t gøre en forskel</tspan><tspan x="-169.98" y="384">4. Respekt for det hele menneske</tspan><tspan x="-169.98" y="420">5. Fo</tspan><tspan class="cls-13" x="-125.67" y="420">k</tspan><tspan x="-113.37" y="420">us </tspan><tspan class="cls-14" x="-85.56" y="420">p</tspan><tspan x="-74.64" y="420">å næ</tspan><tspan class="cls-15" x="-27.57" y="420">r</tspan><tspan class="cls-16" x="-15.57" y="420">v</tspan><tspan x="-4.89" y="420">ærende ledelse og gode </tspan><tspan class="cls-5" x="237.66" y="420">k</tspan><tspan x="249.87" y="420">olleger</tspan><tspan x="-169.98" y="456">6. Et m</tspan><tspan class="cls-3" x="-105.27" y="456">a</tspan><tspan x="-94.2" y="456">tch for mange</tspan><tspan x="-169.98" y="492">7. En god samlet </tspan><tspan class="cls-8" x="-2.7" y="492">p</tspan><tspan x="8.22" y="492">akke</tspan></tspan></text></svg>